<?xml version="1.0" encoding="UTF-8" standalone="no"?>
<!-- Generated by Microsoft Visio, SVG Export network_fc_choices_partner.svg Page-1 -->

<svg
   width="1575"
   height="470"
   viewBox="0 0 1181.2508 352.499"
   xml:space="preserve"
   color-interpolation-filters="sRGB"
   class="st27"
   version="1.1"
   id="svg647"
   sodipodi:docname="network_fc_choices_partner.svg"
   inkscape:version="1.2.1 (9c6d41e410, 2022-07-14)"
   xmlns:inkscape="http://www.inkscape.org/namespaces/inkscape"
   xmlns:sodipodi="http://sodipodi.sourceforge.net/DTD/sodipodi-0.dtd"
   xmlns:xlink="http://www.w3.org/1999/xlink"
   xmlns="http://www.w3.org/2000/svg"
   xmlns:svg="http://www.w3.org/2000/svg"
   xmlns:v="http://schemas.microsoft.com/visio/2003/SVGExtensions/"><sodipodi:namedview
   id="namedview649"
   pagecolor="#ffffff"
   bordercolor="#666666"
   borderopacity="1.0"
   inkscape:showpageshadow="2"
   inkscape:pageopacity="1"
   inkscape:pagecheckerboard="0"
   inkscape:deskcolor="#d1d1d1"
   inkscape:document-units="px"
   showgrid="false"
   inkscape:zoom="0.70710678"
   inkscape:cx="754.48294"
   inkscape:cy="200.81833"
   inkscape:window-width="1920"
   inkscape:window-height="1017"
   inkscape:window-x="1072"
   inkscape:window-y="573"
   inkscape:window-maximized="1"
   inkscape:current-layer="svg647" />
	<v:documentProperties
   v:langID="1033"
   v:viewMarkup="false" />

	<style
   type="text/css"
   id="style2">
	<![CDATA[
		.st1 {fill:#cbc5bf;stroke:#000000;stroke-dasharray:3,3;stroke-linecap:round;stroke-linejoin:round;stroke-width:1}
		.st2 {fill:#000000;font-family:Oracle Sans;font-size:0.75em;font-weight:bold}
		.st3 {fill:#f5f4f2;stroke:#9e9892;stroke-linecap:round;stroke-linejoin:round;stroke-width:1}
		.st4 {font-size:0.888885em;font-weight:normal}
		.st5 {font-size:1em}
		.st6 {fill:none;stroke:#ae562c;stroke-dasharray:3,3;stroke-width:1}
		.st7 {fill:#ae562c;font-family:Oracle Sans;font-size:0.75em;font-weight:bold}
		.st8 {fill:#000000;font-size:0.888885em;font-weight:normal}
		.st9 {fill:#ffffff;stroke:none;stroke-linecap:butt;stroke-width:14.069}
		.st10 {fill:#bb501c;stroke:none;stroke-linecap:butt;stroke-width:14.069}
		.st11 {fill:#ffffff;stroke:none;stroke-linecap:butt;stroke-width:14.5714}
		.st12 {fill:#2c5967;stroke:none;stroke-linecap:butt;stroke-width:14.5714}
		.st13 {fill:none;stroke:none;stroke-width:0.25}
		.st14 {fill:#312d2a;font-family:Oracle Sans Tab;font-size:0.666664em}
		.st15 {fill:#f5f4f2;stroke:none;stroke-linecap:round;stroke-linejoin:round;stroke-width:1}
		.st16 {marker-start:url(#mrkr3-114);stroke:#000000;stroke-linecap:round;stroke-linejoin:round;stroke-width:1}
		.st17 {fill:#000000;fill-opacity:1;stroke:#000000;stroke-opacity:1;stroke-width:0.28409090909091}
		.st18 {fill:#ffffff;stroke:none;stroke-linecap:butt;stroke-width:7.2}
		.st19 {fill:#000000;font-family:Oracle Sans;font-size:0.666664em}
		.st20 {fill:#ffffff;stroke:none;stroke-width:0.25}
		.st21 {fill:#2c5967;stroke:none;stroke-linecap:butt;stroke-width:10.1442}
		.st22 {stroke:#000000;stroke-linecap:round;stroke-linejoin:round;stroke-width:1}
		.st23 {marker-end:url(#mrkr3-154);stroke:#000000;stroke-linecap:round;stroke-linejoin:round;stroke-width:1}
		.st24 {fill:#ffffff;stroke:none;stroke-linecap:butt;stroke-width:18.8571}
		.st25 {fill:#2c5967;stroke:none;stroke-linecap:butt;stroke-width:18.8571}
		.st26 {fill:#ffffff;stroke:none;stroke-linecap:butt;stroke-width:10.1442}
		.st27 {fill:none;fill-rule:evenodd;font-size:12px;overflow:visible;stroke-linecap:square;stroke-miterlimit:3}
	]]>
	</style>

	<defs
   id="Markers">
		<g
   id="lend3">
			<path
   d="M 2,1 0,0 2,-1"
   style="fill:none;stroke-linecap:round;stroke-linejoin:round"
   id="path4" />
		</g>
		<marker
   id="mrkr3-114"
   class="st17"
   v:arrowType="3"
   v:arrowSize="2"
   orient="auto"
   markerUnits="strokeWidth"
   overflow="visible">
			<use
   xlink:href="#lend3"
   transform="scale(3.52)"
   id="use7" />
		</marker>
		<marker
   id="mrkr3-154"
   class="st17"
   v:arrowType="3"
   v:arrowSize="2"
   orient="auto"
   markerUnits="strokeWidth"
   overflow="visible">
			<use
   xlink:href="#lend3"
   transform="scale(-3.52)"
   id="use10" />
		</marker>
	<marker
   id="mrkr3-114-5"
   class="st17"
   v:arrowType="3"
   v:arrowSize="2"
   orient="auto"
   markerUnits="strokeWidth"
   overflow="visible">
			<use
   xlink:href="#lend3"
   transform="scale(3.52)"
   id="use7-9" />
		</marker><marker
   id="mrkr3-154-3"
   class="st17"
   v:arrowType="3"
   v:arrowSize="2"
   orient="auto"
   markerUnits="strokeWidth"
   overflow="visible">
			<use
   xlink:href="#lend3"
   transform="scale(-3.52)"
   id="use10-8" />
		</marker>
		
		
		
		
		
		
		
		
		
		
		
		
		
		
		
		
		
		
		
		
		
		
		
	
			
			
			
			
			
					
		
		
		
		
		
		
		
		
		
		
		
		
		
		
		
		
		
		
		
		
		
		
		
	</defs>
	
<rect
   style="fill:#fcfbfa;stroke-width:1.90601;stroke-miterlimit:3"
   id="rect1245"
   width="1181.2509"
   height="352.50024"
   x="0"
   y="-0.0005998729" /><g
   id="g1308"
   transform="matrix(0.99742369,0,0,0.99742369,7.0728657,10.344996)"><g
     id="shape2-1"
     v:mID="2"
     v:groupContext="shape"
     transform="matrix(1.8332029,0,0,1.8332029,499.3741,-9.0138673)">
			<title
   id="title16">Sheet.2</title>
			<desc
   id="desc18">Metro area</desc>
			<v:textBlock
   v:margins="rect(4,4,4,4)"
   v:verticalAlign="0" />
			<v:textRect
   cx="179.5"
   cy="95.5192"
   width="359"
   height="171" />
			<path
   d="m 0,14.06 c 0,-2.24 2.77,-4.04 6.2,-4.04 h 346.63 c 3.43,0 6.17,1.8 6.17,4.04 V 177 c 0,2.24 -2.74,4.02 -6.17,4.02 H 6.2 C 2.77,181.02 0,179.24 0,177 Z"
   class="st1"
   id="path20" />
			<text
   x="155.92"
   y="22.129999"
   class="st2"
   v:langID="1033"
   id="text22"><v:paragraph
   v:horizAlign="1" /><v:tabList />Metro area</text>		</g><g
     id="shape3-4"
     v:mID="3"
     v:groupContext="shape"
     transform="matrix(1.8332029,0,0,1.8332029,555.43895,-25.512675)">
			<title
   id="title25">Sheet.3</title>
			<desc
   id="desc27">FastConnect Location</desc>
			<v:textBlock
   v:margins="rect(4,4,4,4)"
   v:verticalAlign="0" />
			<v:textRect
   cx="74.4586"
   cy="109.019"
   width="148.92"
   height="144" />
			<path
   d="m 0,39.6 c 0,-1.38 0.26,-2.58 0.55,-2.58 h 147.83 c 0.29,0 0.54,1.2 0.54,2.58 v 138.9 c 0,1.38 -0.25,2.52 -0.54,2.52 H 0.55 C 0.26,181.02 0,179.88 0,178.5 Z"
   class="st3"
   id="path29" />
			<text
   x="27.93"
   y="49.119999"
   class="st2"
   v:langID="1033"
   id="text31"><v:paragraph
   v:horizAlign="1" /><v:tabList />FastConnect Location</text>		</g><g
     id="shape4-7"
     v:mID="4"
     v:groupContext="shape"
     transform="matrix(1.8332029,0,0,1.8332029,895.34593,-25.512675)">
			<title
   id="title34">Sheet.4</title>
			<desc
   id="desc36">OCI Region</desc>
			<v:textBlock
   v:margins="rect(4,4,4,4)"
   v:verticalAlign="0" />
			<v:textRect
   cx="67"
   cy="109.019"
   width="134"
   height="144" />
			<path
   d="m 0,39.6 c 0,-1.38 0.23,-2.58 0.5,-2.58 h 133.01 c 0.27,0 0.49,1.2 0.49,2.58 v 138.9 c 0,1.38 -0.22,2.52 -0.49,2.52 H 0.5 C 0.23,181.02 0,179.88 0,178.5 Z"
   class="st3"
   id="path38" />
			<text
   x="43.150002"
   y="49.119999"
   class="st2"
   v:langID="1033"
   id="text40"><v:paragraph
   v:horizAlign="1" /><v:tabList />OCI Region</text>		</g><g
     id="shape5-10"
     v:mID="5"
     v:groupContext="shape"
     transform="matrix(1.8332029,0,0,1.8332029,20.907678,-25.512675)">
			<title
   id="title43">Sheet.5</title>
			<desc
   id="desc45">On-Premises 10.0.0.0/16</desc>
			<v:textBlock
   v:margins="rect(4,4,4,4)"
   v:verticalAlign="0" />
			<v:textRect
   cx="35.9"
   cy="109.019"
   width="71.81"
   height="144" />
			<path
   d="m 0,39.6 c 0,-1.38 0.12,-2.58 0.27,-2.58 h 71.27 c 0.14,0 0.26,1.2 0.26,2.58 v 138.9 c 0,1.38 -0.12,2.52 -0.26,2.52 H 0.27 C 0.12,181.02 0,179.88 0,178.5 Z"
   class="st3"
   id="path47" />
			<text
   x="8.1400003"
   y="49.119999"
   class="st2"
   v:langID="1033"
   id="text51"><v:paragraph
   v:horizAlign="1" /><v:tabList />On-Premises<v:lf /><tspan
   x="15.48"
   dy="1.35em"
   class="st4"
   id="tspan49">10.0.0.0/16</tspan></text>		</g><g
     id="shape6-14"
     v:mID="6"
     v:groupContext="shape"
     transform="matrix(1.8332029,0,0,1.8332029,423.81499,-25.512675)">
			<title
   id="title54">Sheet.6</title>
			<desc
   id="desc56">Service provider network</desc>
			<v:textBlock
   v:margins="rect(4,4,4,4)"
   v:verticalAlign="0" />
			<v:textRect
   cx="35.9"
   cy="109.019"
   width="71.81"
   height="144" />
			<path
   d="m 0,39.6 c 0,-1.38 0.12,-2.58 0.27,-2.58 h 71.27 c 0.14,0 0.26,1.2 0.26,2.58 v 138.9 c 0,1.38 -0.12,2.52 -0.26,2.52 H 0.27 C 0.12,181.02 0,179.88 0,178.5 Z"
   class="st3"
   id="path58" />
			<text
   x="20.23"
   y="49.119999"
   class="st2"
   v:langID="1033"
   id="text64"><v:paragraph
   v:horizAlign="1" /><v:tabList />Service <tspan
   x="17.58"
   dy="1.2em"
   class="st5"
   id="tspan60">provider </tspan><tspan
   x="18.110001"
   dy="1.2em"
   class="st5"
   id="tspan62">network</tspan></text>		</g><g
     id="shape7-19"
     v:mID="7"
     v:groupContext="shape"
     transform="matrix(1.8332029,0,0,1.8332029,959.18355,-59.426929)">
			<title
   id="title67">Sheet.7</title>
			<desc
   id="desc69">VCN 172.16.0.0/24</desc>
			<v:textBlock
   v:margins="rect(4,4,4,4)"
   v:verticalAlign="0" />
			<v:textRect
   cx="42.8382"
   cy="131.519"
   width="85.68"
   height="99" />
			<path
   d="m 0,181.02 h 85.68 v -99 H 0 Z"
   class="st6"
   id="path71" />
			<text
   x="4"
   y="94.120003"
   class="st7"
   v:langID="1033"
   id="text75"><v:paragraph /><v:tabList />VCN<v:lf /><tspan
   x="4"
   dy="1.35em"
   class="st8"
   id="tspan73">172.16.0.0/24</tspan></text>		</g><g
     id="group8-23"
     transform="matrix(1.8332029,0,0,1.8332029,1091.4986,-47.104872)"
     v:mID="8"
     v:groupContext="group">
			<title
   id="title78">VCN</title>
			<g
   id="group9-24"
   v:mID="9"
   v:groupContext="group">
				<title
   id="title80">Sheet.9</title>
				<g
   id="shape10-25"
   v:mID="10"
   v:groupContext="shape"
   transform="translate(0.213948,-0.213948)">
					<title
   id="title82">Sheet.10</title>
					<path
   d="m 13.14,181.02 c -1.2,0 -2.27,-0.86 -2.53,-2.05 H 7.57 c -0.25,1.15 -1.28,2.05 -2.52,2.05 -1.41,0 -2.57,-1.16 -2.57,-2.57 0,-0.9 0.52,-1.75 1.29,-2.22 l -0.95,-2.87 c -0.08,0 -0.17,0 -0.25,0 -1.41,0 -2.57,-1.16 -2.57,-2.57 0,-1.41 1.16,-2.56 2.57,-2.56 0.64,0 1.24,0.21 1.71,0.68 l 2.48,-1.8 c -0.13,-0.34 -0.21,-0.68 -0.21,-1.07 0,-1.41 1.15,-2.56 2.56,-2.56 1.42,0 2.57,1.15 2.57,2.56 0,0.35 -0.08,0.73 -0.21,1.07 l 2.44,1.8 c 0.47,-0.43 1.07,-0.68 1.71,-0.68 1.41,0 2.57,1.15 2.57,2.56 0,1.41 -1.16,2.57 -2.57,2.57 -0.09,0 -0.17,0 -0.26,0 l -0.94,2.87 c 0.77,0.47 1.28,1.32 1.28,2.22 0,1.41 -1.15,2.57 -2.56,2.57 z"
   class="st9"
   id="path84" />
				</g>
				<g
   id="shape11-27"
   v:mID="11"
   v:groupContext="shape">
					<title
   id="title87">Sheet.11</title>
					<path
   d="m 9.29,163.48 c 1.28,0 2.35,1.07 2.35,2.35 0,0.38 -0.09,0.77 -0.3,1.11 l 2.74,2.01 c 0.43,-0.47 1.02,-0.72 1.71,-0.72 1.28,0 2.35,1.06 2.35,2.35 0,1.28 -1.07,2.35 -2.35,2.35 -0.13,0 -0.3,0 -0.43,-0.04 l -1.07,3.21 c 0.77,0.38 1.33,1.2 1.33,2.14 0,1.28 -1.07,2.35 -2.36,2.35 -1.19,0 -2.18,-0.9 -2.35,-2.05 H 7.53 c -0.17,1.15 -1.15,2.05 -2.35,2.05 -1.29,0 -2.36,-1.07 -2.36,-2.35 0,-0.94 0.56,-1.76 1.33,-2.14 l -0.94,-3.21 c -0.13,0.04 -0.3,0.04 -0.43,0.04 -1.28,0 -2.35,-1.07 -2.35,-2.35 0,-1.29 1.07,-2.35 2.35,-2.35 0.69,0 1.29,0.29 1.71,0.72 l 2.74,-2.01 c -0.17,-0.34 -0.3,-0.73 -0.3,-1.11 0,-1.28 1.07,-2.35 2.36,-2.35 z m 0,-0.43 c -1.55,0 -2.79,1.24 -2.79,2.78 0,0.34 0.05,0.68 0.18,0.98 l -2.19,1.59 c -0.47,-0.39 -1.11,-0.6 -1.71,-0.6 -1.54,0 -2.78,1.24 -2.78,2.78 0,1.54 1.24,2.78 2.78,2.78 0.04,0 0.09,0 0.13,0 l 0.81,2.57 c -0.77,0.51 -1.24,1.37 -1.24,2.31 0,1.54 1.24,2.78 2.78,2.78 1.24,0 2.36,-0.86 2.7,-2.05 h 2.69 c 0.35,1.19 1.42,2.05 2.7,2.05 1.54,0 2.78,-1.24 2.78,-2.78 0,-0.94 -0.47,-1.8 -1.24,-2.31 l 0.81,-2.57 c 0.05,0 0.09,0 0.13,0 1.54,0 2.78,-1.24 2.78,-2.78 0,-1.54 -1.24,-2.78 -2.78,-2.78 -0.64,0 -1.24,0.21 -1.75,0.6 l -2.18,-1.59 c 0.12,-0.3 0.17,-0.64 0.17,-0.98 0.04,-1.54 -1.24,-2.78 -2.78,-2.78 z"
   class="st9"
   id="path89" />
				</g>
			</g>
			<g
   id="shape12-29"
   v:mID="12"
   v:groupContext="shape"
   transform="translate(0.470686,-0.427897)">
				<title
   id="title93">Sheet.12</title>
				<path
   d="m 15.36,168.65 c -0.68,0 -1.28,0.3 -1.71,0.73 l -2.74,-2.01 c 0.17,-0.34 0.3,-0.73 0.3,-1.11 0,-1.29 -1.07,-2.36 -2.35,-2.36 -1.29,0 -2.36,1.07 -2.36,2.36 0,0.38 0.09,0.77 0.3,1.11 l -2.73,2.01 c -0.43,-0.43 -1.03,-0.73 -1.72,-0.73 -1.28,0 -2.35,1.07 -2.35,2.36 0,1.28 1.07,2.35 2.35,2.35 0.13,0 0.3,0 0.43,-0.04 l 1.03,3.21 c -0.77,0.38 -1.33,1.19 -1.33,2.14 0,1.28 1.07,2.35 2.36,2.35 1.19,0 2.18,-0.9 2.35,-2.05 h 3.38 c 0.17,1.15 1.15,2.05 2.35,2.05 1.29,0 2.36,-1.07 2.36,-2.35 0,-0.95 -0.56,-1.76 -1.33,-2.14 l 0.98,-3.21 c 0.13,0.04 0.3,0.04 0.43,0.04 1.29,0 2.35,-1.07 2.35,-2.35 0,-1.29 -1.06,-2.36 -2.35,-2.36 z m -2.48,11.73 c -0.94,0 -1.71,-0.77 -1.71,-1.71 0,-0.95 0.77,-1.72 1.71,-1.72 0.94,0 1.71,0.77 1.71,1.72 0,0.94 -0.77,1.71 -1.71,1.71 z M 7.15,178.37 C 7.06,177.81 6.8,177.34 6.42,176.95 l 1.28,-1.79 c 0.34,0.17 0.73,0.3 1.11,0.3 0.39,0 0.77,-0.09 1.12,-0.3 l 1.28,1.79 c -0.38,0.35 -0.64,0.86 -0.73,1.42 z m -4.07,0.3 c 0,-0.95 0.77,-1.72 1.71,-1.72 0.94,0 1.71,0.77 1.71,1.72 0,0.94 -0.77,1.71 -1.71,1.71 -0.94,0 -1.71,-0.77 -1.71,-1.71 z m -0.77,-9.42 c 0.94,0 1.71,0.77 1.71,1.71 0,0.95 -0.77,1.72 -1.71,1.72 -0.94,0 -1.71,-0.77 -1.71,-1.72 0,-0.94 0.77,-1.71 1.71,-1.71 z m 4.79,-2.99 c 0,-0.94 0.77,-1.71 1.71,-1.71 0.95,0 1.72,0.77 1.72,1.71 0,0.94 -0.77,1.71 -1.72,1.71 -0.94,0 -1.71,-0.77 -1.71,-1.71 z m 5.95,5.13 -2.1,0.69 c -0.34,-0.69 -1.02,-1.2 -1.79,-1.33 v -2.14 c 0.55,-0.09 1.02,-0.34 1.37,-0.73 l 2.73,2.01 c -0.17,0.35 -0.29,0.73 -0.29,1.12 0.04,0.12 0.04,0.25 0.08,0.38 z m -2.48,1.71 c 0,0.94 -0.77,1.71 -1.71,1.71 -0.94,0 -1.71,-0.77 -1.71,-1.71 0,-0.94 0.77,-1.71 1.71,-1.71 0.94,0 1.71,0.73 1.71,1.71 z m -2.05,-4.49 v 2.14 c -0.82,0.13 -1.5,0.6 -1.8,1.33 l -2.1,-0.69 c 0.04,-0.13 0.04,-0.26 0.04,-0.43 0,-0.38 -0.08,-0.77 -0.3,-1.11 l 2.74,-2.01 c 0.39,0.43 0.86,0.68 1.42,0.77 z m -4.07,3.38 2.1,0.69 c -0.05,0.12 -0.05,0.25 -0.05,0.42 0,0.69 0.3,1.29 0.73,1.71 l -1.28,1.8 c -0.34,-0.17 -0.73,-0.3 -1.11,-0.3 -0.13,0 -0.3,0 -0.43,0.05 l -1.03,-3.21 c 0.43,-0.26 0.81,-0.65 1.07,-1.16 z m 8.43,4.32 c -0.39,0 -0.77,0.09 -1.11,0.3 l -1.29,-1.8 c 0.47,-0.42 0.73,-1.02 0.73,-1.71 0,-0.13 0,-0.3 -0.04,-0.42 l 2.09,-0.69 c 0.22,0.47 0.65,0.86 1.12,1.11 l -1.07,3.21 c -0.17,0 -0.3,0 -0.43,0 z m 0.77,-5.3 c 0,-0.94 0.77,-1.72 1.71,-1.72 0.94,0 1.71,0.78 1.71,1.72 0,0.94 -0.77,1.71 -1.71,1.71 -0.94,0 -1.71,-0.77 -1.71,-1.71 z"
   class="st10"
   id="path95" />
			</g>
		</g><g
     id="group23-51"
     transform="matrix(1.8332029,0,0,1.8332029,909.68707,-61.914768)"
     v:mID="23"
     v:groupContext="group">
			<title
   id="title151">Sheet.23</title>
			<g
   id="shape24-52"
   v:mID="24"
   v:groupContext="shape"
   transform="translate(10.1765)">
				<title
   id="title153">Sheet.24</title>
				<path
   d="m 0,153.12 c 0,-0.28 0.06,-0.51 0.13,-0.51 H 33.9 c 0.07,0 0.12,0.23 0.12,0.51 v 27.4 c 0,0.27 -0.05,0.5 -0.12,0.5 H 0.13 C 0.06,181.02 0,180.79 0,180.52 Z"
   class="st15"
   id="path155" />
			</g>
			<g
   id="group25-54"
   v:mID="25"
   v:groupContext="group">
				<title
   id="title158">Dynamic Routing Gateway (DRG).83</title>
				<g
   id="group26-55"
   transform="translate(8.40315,-28.6031)"
   v:mID="26"
   v:groupContext="group">
					<title
   id="title160">Direct Routing Gateway DRG</title>
					<g
   id="shape27-56"
   v:mID="27"
   v:groupContext="shape">
						<title
   id="title162">Sheet.27</title>
						<circle
   cx="18.1752"
   cy="162.84399"
   class="st11"
   id="ellipse164"
   r="18.1752" />
					</g>
					<g
   id="shape28-58"
   v:mID="28"
   v:groupContext="shape"
   transform="translate(0.443298,-5.00993)">
						<title
   id="title167">Sheet.28</title>
						<path
   d="M 17.73,150.12 A 17.7319,17.7319 0 1 1 0,167.85 17.7319,17.7319 0 0 1 17.73,150.12 Z m 0,-0.88 a 18.6185,18.6185 -180 1 0 18.62,18.61 18.6185,18.6185 -180 0 0 -18.62,-18.61 z"
   class="st11"
   id="path169" />
					</g>
					<g
   id="shape29-60"
   v:mID="29"
   v:groupContext="shape"
   transform="translate(5.63685,-1.92391)">
						<title
   id="title172">Sheet.29</title>
						<path
   d="m 12.54,147.04 a 17.7319,17.7319 -180 1 0 17.73,17.73 17.7319,17.7319 -180 0 0 -17.73,-17.73 z m 0,33.98 a 16.2513,16.2513 0 1 1 16.25,-16.25 16.269,16.269 0 0 1 -16.25,16.25 z"
   class="st12"
   id="path174" />
					</g>
					<g
   id="shape30-62"
   v:mID="30"
   v:groupContext="shape"
   transform="translate(14.1412,-4.93834)">
						<title
   id="title177">Sheet.30</title>
						<path
   d="m 4.77,178.19 v -20.63 l 2.25,2.25 1.05,-1.04 -4.04,-4.04 -4.03,4.04 1.05,1.04 2.25,-2.25 v 20.63 l -2.25,-2.25 -1.05,1.05 4.03,4.03 4.04,-4.03 -1.05,-1.05 z"
   class="st12"
   id="path179" />
					</g>
					<g
   id="shape31-64"
   v:mID="31"
   v:groupContext="shape"
   transform="translate(5.06246,-14.1412)">
						<title
   id="title182">Sheet.31</title>
						<path
   d="M 8.28,172.95 7.23,174 9.49,176.25 H 0 v 1.47 h 9.49 l -2.26,2.25 1.05,1.05 4.03,-4.03 z"
   class="st12"
   id="path184" />
					</g>
					<g
   id="shape32-66"
   v:mID="32"
   v:groupContext="shape"
   transform="translate(18.982,-14.1412)">
						<title
   id="title187">Sheet.32</title>
						<path
   d="M 2.82,176.25 5.07,174 4.03,172.95 0,176.99 l 4.03,4.03 1.04,-1.05 -2.25,-2.25 h 9.49 v -1.47 z"
   class="st12"
   id="path189" />
					</g>
				</g>
				<g
   id="shape33-68"
   v:mID="33"
   v:groupContext="shape">
					<title
   id="title193">Sheet.33</title>
					<desc
   id="desc195">Dynamic Routing Gateway</desc>
					<v:textBlock
   v:margins="rect(4,4,4,4)" />
					<v:textRect
   cx="26.8"
   cy="166.519"
   width="53.6"
   height="29" />
					<rect
   x="0"
   y="152.019"
   width="53.599998"
   height="29"
   class="st13"
   id="rect197" />
					<text
   x="10.88"
   y="159.32001"
   class="st14"
   v:langID="1033"
   id="text203"><v:paragraph
   v:horizAlign="1"
   v:bulletSize="0.166667" /><v:tabList />Dynamic<v:newlineChar /><tspan
   x="12.55"
   dy="1.2em"
   class="st5"
   id="tspan199">Routing<v:newlineChar /></tspan><tspan
   x="11.28"
   dy="1.2em"
   class="st5"
   id="tspan201">Gateway</tspan></text>				</g>
			</g>
		</g><g
     id="shape62-109"
     v:mID="62"
     v:groupContext="shape"
     v:layerMember="0"
     transform="matrix(1.8332029,0,0,1.8332029,189.47373,-132.3039)">
			<title
   id="title302">Dynamic connector.3456</title>
			<desc
   id="desc304">FastConnect</desc>
			<v:textBlock
   v:margins="rect(4,4,4,4)" />
			<v:textRect
   cx="73.5605"
   cy="172.373"
   width="55.16"
   height="17.6036" />
			<path
   d="M 0,172.02 H 108.52"
   class="st16"
   id="path306" />
			<rect
   v:rectContext="textBkgnd"
   x="50.964298"
   y="167.573"
   width="45.192299"
   height="9.5998497"
   class="st18"
   id="rect308" />
			<text
   x="50.959999"
   y="174.77"
   class="st19"
   v:langID="1033"
   id="text310"><v:paragraph
   v:horizAlign="1" /><v:tabList />FastConnect</text>		</g><g
     id="group63-117"
     transform="matrix(1.8332029,0,0,1.8332029,216.57873,-133.42545)"
     v:mID="63"
     v:groupContext="group">
			<title
   id="title313">Sheet.63</title>
			<g
   id="shape64-118"
   v:mID="64"
   v:groupContext="shape"
   transform="translate(0,-5.24615)">
				<title
   id="title315">Sheet.64</title>
				<rect
   x="0"
   y="174.269"
   width="31.7631"
   height="6.75"
   class="st20"
   id="rect317" />
			</g>
			<g
   id="group65-120"
   transform="translate(3.50654)"
   v:mID="65"
   v:groupContext="group">
				<title
   id="title320">Sheet.65</title>
				<g
   id="shape66-121"
   v:mID="66"
   v:groupContext="shape"
   transform="translate(2.74874,-13.6708)">
					<title
   id="title322">Sheet.66</title>
					<path
   d="m 0,180.26 v 0.76 h 2.49 c 0.07,-0.26 0.17,-0.52 0.3,-0.76 z"
   class="st21"
   id="path324" />
				</g>
				<g
   id="shape67-123"
   v:mID="67"
   v:groupContext="shape"
   transform="translate(18.7695,-13.6708)">
					<title
   id="title327">Sheet.67</title>
					<path
   d="m 3.4,181.02 v -0.76 H 0 c 0.11,0.24 0.21,0.5 0.28,0.76 z"
   class="st21"
   id="path329" />
				</g>
				<g
   id="shape68-125"
   v:mID="68"
   v:groupContext="shape"
   transform="translate(1.41939,-10.922)">
					<title
   id="title332">Sheet.68</title>
					<path
   d="M 3.24,180.26 H 0 v 0.76 h 2.53 c 0.21,-0.29 0.44,-0.54 0.71,-0.76 z"
   class="st21"
   id="path334" />
				</g>
				<g
   id="shape69-127"
   v:mID="69"
   v:groupContext="shape"
   transform="translate(20.6391,-10.9263)">
					<title
   id="title337">Sheet.69</title>
					<path
   d="m 2.95,181.02 v -0.76 H 0 c 0.2,0.24 0.37,0.49 0.52,0.76 z"
   class="st21"
   id="path339" />
				</g>
				<g
   id="shape70-129"
   v:mID="70"
   v:groupContext="shape"
   transform="translate(21.7283,-8.27194)">
					<title
   id="title342">Sheet.70</title>
					<path
   d="m 0,181.02 h 3.28 v -0.76 H 0 c 0.02,0.25 0.02,0.51 0,0.76 z"
   class="st21"
   id="path344" />
				</g>
				<g
   id="shape71-131"
   v:mID="71"
   v:groupContext="shape"
   transform="translate(0,-8.27194)">
					<title
   id="title347">Sheet.71</title>
					<path
   d="M 3.28,180.26 H 0 v 0.76 h 3.3 c -0.03,-0.25 -0.04,-0.5 -0.02,-0.76 z"
   class="st21"
   id="path349" />
				</g>
				<g
   id="shape72-133"
   v:mID="72"
   v:groupContext="shape"
   transform="translate(1.41939,-5.5232)">
					<title
   id="title352">Sheet.72</title>
					<path
   d="M 2.79,180.26 H 0 v 0.76 h 3.48 c 0.01,-0.04 0.01,-0.08 0.02,-0.13 -0.27,-0.18 -0.51,-0.39 -0.71,-0.63 z"
   class="st21"
   id="path354" />
				</g>
				<g
   id="shape73-135"
   v:mID="73"
   v:groupContext="shape"
   transform="translate(20.5405,-5.5232)">
					<title
   id="title357">Sheet.73</title>
					<path
   d="m 3.05,181.02 v -0.76 H 0.56 C 0.4,180.53 0.21,180.78 0,181.02 Z"
   class="st21"
   id="path359" />
				</g>
				<g
   id="shape74-137"
   v:mID="74"
   v:groupContext="shape"
   transform="translate(19.5242,-2.77447)">
					<title
   id="title362">Sheet.74</title>
					<path
   d="m 2.65,181.02 v -0.76 H 0.34 c -0.08,0.27 -0.2,0.52 -0.34,0.76 z"
   class="st21"
   id="path364" />
				</g>
				<g
   id="shape75-139"
   v:mID="75"
   v:groupContext="shape"
   transform="translate(2.74874,-2.77447)">
					<title
   id="title367">Sheet.75</title>
					<path
   d="m 0,180.26 v 0.76 h 2.71 c -0.15,-0.24 -0.27,-0.49 -0.37,-0.76 z"
   class="st21"
   id="path369" />
				</g>
				<g
   id="shape76-141"
   v:mID="76"
   v:groupContext="shape"
   transform="translate(3.71787)">
					<title
   id="title372">Sheet.76</title>
					<path
   d="m 17.44,172.77 c 0.18,-1.79 -0.82,-3.47 -2.45,-4.18 -0.17,-2.45 -2.09,-4.45 -4.56,-4.7 -1.41,-0.14 -2.8,0.31 -3.86,1.24 -0.25,-0.08 -0.52,-0.14 -0.78,-0.17 -0.93,-0.09 -1.84,0.18 -2.57,0.78 -0.72,0.59 -1.17,1.43 -1.27,2.36 -0.04,0.41 -0.01,0.83 0.1,1.23 -1.06,0.45 -1.8,1.44 -1.92,2.61 -0.13,1.32 0.57,2.57 1.73,3.16 -0.08,0.23 -0.13,0.46 -0.15,0.7 -0.09,0.89 0.17,1.76 0.74,2.45 0.56,0.7 1.37,1.13 2.26,1.22 0.29,0.03 0.59,0.02 0.88,-0.03 0.66,0.88 1.65,1.45 2.75,1.56 0.14,0.01 0.27,0.02 0.4,0.02 1.24,0 2.4,-0.58 3.15,-1.57 0.11,0.03 0.23,0.04 0.35,0.06 0.11,0.01 0.22,0.01 0.32,0.01 1.63,0 3.02,-1.23 3.19,-2.88 0.03,-0.3 0.02,-0.61 -0.04,-0.92 0.98,-0.69 1.61,-1.75 1.73,-2.95 z m -2.53,2.88 c 0.09,0.31 0.12,0.61 0.09,0.91 -0.06,0.66 -0.38,1.24 -0.89,1.65 -0.5,0.42 -1.14,0.61 -1.79,0.55 -0.16,-0.02 -0.32,-0.05 -0.48,-0.1 l -0.27,-0.09 -0.15,0.24 c -0.66,1.01 -1.81,1.56 -2.99,1.44 -0.96,-0.1 -1.82,-0.62 -2.35,-1.43 l -0.15,-0.23 -0.26,0.06 c -0.29,0.08 -0.59,0.1 -0.88,0.07 -0.69,-0.07 -1.31,-0.41 -1.75,-0.94 -0.43,-0.54 -0.64,-1.22 -0.57,-1.9 0.03,-0.28 0.11,-0.56 0.23,-0.82 l 0.16,-0.37 -0.38,-0.14 c -0.81,-0.3 -1.38,-0.99 -1.55,-1.8 h 5.32 l -1.04,1.04 0.54,0.54 1.94,-1.96 -1.94,-1.95 -0.54,0.53 1.04,1.05 H 0.89 c 0.11,-0.98 0.79,-1.79 1.74,-2.07 l 0.39,-0.12 -0.15,-0.38 c -0.15,-0.4 -0.21,-0.83 -0.16,-1.25 0.07,-0.73 0.42,-1.38 0.99,-1.85 0.57,-0.47 1.29,-0.68 2.02,-0.61 0.27,0.02 0.53,0.09 0.79,0.2 l 0.23,0.1 0.18,-0.18 c 0.91,-0.88 2.17,-1.32 3.44,-1.19 2.17,0.22 3.84,2.03 3.89,4.21 v 0.26 l 0.24,0.09 c 1.22,0.45 2.05,1.54 2.19,2.78 h -5.29 l 0.94,-0.95 -0.54,-0.53 -1.85,1.86 1.95,1.96 0.53,-0.54 -1.03,-1.04 h 5.29 c -0.12,1.03 -0.7,1.93 -1.6,2.48 l -0.24,0.15 z"
   class="st21"
   id="path374" />
				</g>
			</g>
		</g><g
     id="shape77-143"
     v:mID="77"
     v:groupContext="shape"
     v:layerMember="0"
     transform="matrix(1.8332029,0,0,1.8332029,455.84103,-131.17024)">
			<title
   id="title379">Sheet.77</title>
			<path
   d="M 0,172.02 H 34.4"
   class="st22"
   id="path381" />
		</g><g
     id="shape78-146"
     v:mID="78"
     v:groupContext="shape"
     v:layerMember="0"
     transform="matrix(1.8332029,0,0,1.8332029,585.22666,-132.3039)">
			<title
   id="title384">Sheet.78</title>
			<path
   d="M 0,172.02 H 74.84"
   class="st22"
   id="path386" />
		</g><g
     id="shape79-149"
     v:mID="79"
     v:groupContext="shape"
     v:layerMember="0"
     transform="matrix(1.8332029,0,0,1.8332029,739.57318,-164.46487)">
			<title
   id="title389">Sheet.79</title>
			<path
   d="m 0,189.89 101.2,0.26"
   class="st23"
   id="path391" />
		</g><g
     id="group80-155"
     transform="matrix(1.8332029,0,0,1.8332029,657.53552,-61.914768)"
     v:mID="80"
     v:groupContext="group">
			<title
   id="title394">Dynamic Routing Gateway (DRG).145</title>
			<g
   id="group81-156"
   transform="translate(8.40315,-28.6031)"
   v:mID="81"
   v:groupContext="group">
				<title
   id="title396">Direct Routing Gateway DRG</title>
				<g
   id="shape82-157"
   v:mID="82"
   v:groupContext="shape">
					<title
   id="title398">Sheet.82</title>
					<circle
   cx="18.1752"
   cy="162.84399"
   class="st11"
   id="ellipse400"
   r="18.1752" />
				</g>
				<g
   id="shape83-159"
   v:mID="83"
   v:groupContext="shape"
   transform="translate(0.443298,-5.00993)">
					<title
   id="title403">Sheet.83</title>
					<path
   d="M 17.73,150.12 A 17.7319,17.7319 0 1 1 0,167.85 17.7319,17.7319 0 0 1 17.73,150.12 Z m 0,-0.88 a 18.6185,18.6185 -180 1 0 18.62,18.61 18.6185,18.6185 -180 0 0 -18.62,-18.61 z"
   class="st11"
   id="path405" />
				</g>
				<g
   id="shape84-161"
   v:mID="84"
   v:groupContext="shape"
   transform="translate(5.63685,-1.92391)">
					<title
   id="title408">Sheet.84</title>
					<path
   d="m 12.54,147.04 a 17.7319,17.7319 -180 1 0 17.73,17.73 17.7319,17.7319 -180 0 0 -17.73,-17.73 z m 0,33.98 a 16.2513,16.2513 0 1 1 16.25,-16.25 16.269,16.269 0 0 1 -16.25,16.25 z"
   class="st12"
   id="path410" />
				</g>
				<g
   id="shape85-163"
   v:mID="85"
   v:groupContext="shape"
   transform="translate(14.1412,-4.93834)">
					<title
   id="title413">Sheet.85</title>
					<path
   d="m 4.77,178.19 v -20.63 l 2.25,2.25 1.05,-1.04 -4.04,-4.04 -4.03,4.04 1.05,1.04 2.25,-2.25 v 20.63 l -2.25,-2.25 -1.05,1.05 4.03,4.03 4.04,-4.03 -1.05,-1.05 z"
   class="st12"
   id="path415" />
				</g>
				<g
   id="shape86-165"
   v:mID="86"
   v:groupContext="shape"
   transform="translate(5.06246,-14.1412)">
					<title
   id="title418">Sheet.86</title>
					<path
   d="M 8.28,172.95 7.23,174 9.49,176.25 H 0 v 1.47 h 9.49 l -2.26,2.25 1.05,1.05 4.03,-4.03 z"
   class="st12"
   id="path420" />
				</g>
				<g
   id="shape87-167"
   v:mID="87"
   v:groupContext="shape"
   transform="translate(18.982,-14.1412)">
					<title
   id="title423">Sheet.87</title>
					<path
   d="M 2.82,176.25 5.07,174 4.03,172.95 0,176.99 l 4.03,4.03 1.04,-1.05 -2.25,-2.25 h 9.49 v -1.47 z"
   class="st12"
   id="path425" />
				</g>
			</g>
			<g
   id="shape88-169"
   v:mID="88"
   v:groupContext="shape">
				<title
   id="title429">Sheet.88</title>
				<desc
   id="desc431">Physical Device</desc>
				<v:textBlock
   v:margins="rect(4,4,4,4)" />
				<v:textRect
   cx="26.8"
   cy="166.519"
   width="53.6"
   height="29" />
				<rect
   x="0"
   y="152.019"
   width="53.599998"
   height="29"
   class="st13"
   id="rect433" />
				<text
   x="12.06"
   y="164.12"
   class="st14"
   v:langID="1033"
   id="text437"><v:paragraph
   v:horizAlign="1"
   v:bulletSize="0.166667" /><v:tabList />Physical<v:lf /><tspan
   x="14.77"
   dy="1.2em"
   class="st5"
   id="tspan435">Device</tspan></text>			</g>
		</g><g
     id="group89-173"
     transform="matrix(1.8332029,0,0,1.8332029,731.09096,-61.914768)"
     v:mID="89"
     v:groupContext="group">
			<title
   id="title441">Dynamic Routing Gateway (DRG).85</title>
			<g
   id="group90-174"
   transform="translate(8.40315,-28.6031)"
   v:mID="90"
   v:groupContext="group">
				<title
   id="title443">Direct Routing Gateway DRG</title>
				<g
   id="shape91-175"
   v:mID="91"
   v:groupContext="shape">
					<title
   id="title445">Sheet.91</title>
					<circle
   cx="18.1752"
   cy="162.84399"
   class="st11"
   id="ellipse447"
   r="18.1752" />
				</g>
				<g
   id="shape92-177"
   v:mID="92"
   v:groupContext="shape"
   transform="translate(0.443298,-5.00993)">
					<title
   id="title450">Sheet.92</title>
					<path
   d="M 17.73,150.12 A 17.7319,17.7319 0 1 1 0,167.85 17.7319,17.7319 0 0 1 17.73,150.12 Z m 0,-0.88 a 18.6185,18.6185 -180 1 0 18.62,18.61 18.6185,18.6185 -180 0 0 -18.62,-18.61 z"
   class="st11"
   id="path452" />
				</g>
				<g
   id="shape93-179"
   v:mID="93"
   v:groupContext="shape"
   transform="translate(5.63685,-1.92391)">
					<title
   id="title455">Sheet.93</title>
					<path
   d="m 12.54,147.04 a 17.7319,17.7319 -180 1 0 17.73,17.73 17.7319,17.7319 -180 0 0 -17.73,-17.73 z m 0,33.98 a 16.2513,16.2513 0 1 1 16.25,-16.25 16.269,16.269 0 0 1 -16.25,16.25 z"
   class="st12"
   id="path457" />
				</g>
				<g
   id="shape94-181"
   v:mID="94"
   v:groupContext="shape"
   transform="translate(14.1412,-4.93834)">
					<title
   id="title460">Sheet.94</title>
					<path
   d="m 4.77,178.19 v -20.63 l 2.25,2.25 1.05,-1.04 -4.04,-4.04 -4.03,4.04 1.05,1.04 2.25,-2.25 v 20.63 l -2.25,-2.25 -1.05,1.05 4.03,4.03 4.04,-4.03 -1.05,-1.05 z"
   class="st12"
   id="path462" />
				</g>
				<g
   id="shape95-183"
   v:mID="95"
   v:groupContext="shape"
   transform="translate(5.06246,-14.1412)">
					<title
   id="title465">Sheet.95</title>
					<path
   d="M 8.28,172.95 7.23,174 9.49,176.25 H 0 v 1.47 h 9.49 l -2.26,2.25 1.05,1.05 4.03,-4.03 z"
   class="st12"
   id="path467" />
				</g>
				<g
   id="shape96-185"
   v:mID="96"
   v:groupContext="shape"
   transform="translate(18.982,-14.1412)">
					<title
   id="title470">Sheet.96</title>
					<path
   d="M 2.82,176.25 5.07,174 4.03,172.95 0,176.99 l 4.03,4.03 1.04,-1.05 -2.25,-2.25 h 9.49 v -1.47 z"
   class="st12"
   id="path472" />
				</g>
			</g>
			<g
   id="shape97-187"
   v:mID="97"
   v:groupContext="shape">
				<title
   id="title476">Sheet.97</title>
				<desc
   id="desc478">Logical Device</desc>
				<v:textBlock
   v:margins="rect(4,4,4,4)" />
				<v:textRect
   cx="26.8"
   cy="166.519"
   width="53.6"
   height="29" />
				<rect
   x="0"
   y="152.019"
   width="53.599998"
   height="29"
   class="st13"
   id="rect480" />
				<text
   x="13.91"
   y="164.12"
   class="st14"
   v:langID="1033"
   id="text484"><v:paragraph
   v:horizAlign="1"
   v:bulletSize="0.166667" /><v:tabList />Logical <tspan
   x="14.77"
   dy="1.2em"
   class="st5"
   id="tspan482">Device</tspan></text>			</g>
		</g><g
     id="group98-191"
     transform="matrix(1.8332029,0,0,1.8332029,20.907678,-64.389959)"
     v:mID="98"
     v:groupContext="group">
			<title
   id="title488">On-Premises Data Center</title>
			<g
   id="shape99-192"
   v:mID="99"
   v:groupContext="shape"
   transform="translate(-5.01874,-10.7511)">
				<title
   id="title490">Sheet.99</title>
				<desc
   id="desc492">Data Center</desc>
				<v:textBlock
   v:margins="rect(4,4,4,4)" />
				<v:textRect
   cx="29.3094"
   cy="171.895"
   width="58.62"
   height="18.2489" />
				<rect
   x="0"
   y="162.77"
   width="58.618698"
   height="18.248899"
   class="st13"
   id="rect494" />
				<text
   x="7.9099998"
   y="174.28999"
   class="st14"
   v:langID="1033"
   id="text496"><v:paragraph
   v:horizAlign="1"
   v:bulletSize="0.166667" /><v:tabList />Data Center</text>			</g>
			<g
   id="group100-195"
   transform="translate(16.7879,-28.075)"
   v:mID="100"
   v:groupContext="group">
				<title
   id="title499">Customer Data Center</title>
				<g
   id="shape101-196"
   v:mID="101"
   v:groupContext="shape"
   transform="translate(0.428234,-0.428234)">
					<title
   id="title501">Sheet.101</title>
					<path
   d="m 0,179.26 a 1.7558,1.7558 -180 0 0 1.76,1.76 h 15.65 a 1.7558,1.7558 -180 0 0 1.76,-1.76 v -31.6 A 1.7558,1.7558 -180 0 0 17.41,145.9 H 1.76 A 1.7558,1.7558 -180 0 0 0,147.66 Z"
   class="st24"
   id="path503" />
				</g>
				<g
   id="shape102-198"
   v:mID="102"
   v:groupContext="shape">
					<title
   id="title506">Sheet.102</title>
					<path
   d="m 17.84,145.9 a 1.33609,1.33609 0 0 1 1.33,1.33 v 31.61 a 1.33609,1.33609 0 0 1 -1.33,1.32 H 2.18 a 1.33609,1.33609 0 0 1 -1.32,-1.32 v -31.61 a 1.33609,1.33609 0 0 1 1.32,-1.33 z m 0,-0.85 H 2.18 A 2.18399,2.18399 -180 0 0 0,147.23 v 31.61 a 2.18399,2.18399 -180 0 0 2.18,2.18 h 15.66 a 2.18399,2.18399 -180 0 0 2.18,-2.18 v -31.61 a 2.18399,2.18399 -180 0 0 -2.18,-2.18 z"
   class="st24"
   id="path508" />
				</g>
				<g
   id="shape103-200"
   v:mID="103"
   v:groupContext="shape"
   transform="translate(0.856468,-0.856468)">
					<title
   id="title511">Sheet.103</title>
					<path
   d="M 16.98,146.76 H 1.33 A 1.33609,1.33609 -180 0 0 0,148.09 v 31.6 a 1.33609,1.33609 -180 0 0 1.33,1.33 h 15.65 a 1.33609,1.33609 -180 0 0 1.33,-1.33 v -31.6 a 1.33609,1.33609 -180 0 0 -1.33,-1.33 z m 0.15,32.93 a 0.154164,0.154164 0 0 1 -0.1456,0.1456 L 1.33,179.84 A 0.154164,0.154164 0 0 1 1.1844,179.6944 L 1.18,148.09 a 0.154164,0.154164 0 0 1 0.1456,-0.1456 L 16.98,147.94 a 0.154164,0.154164 0 0 1 0.1456,0.1456 z"
   class="st25"
   id="path513" />
				</g>
				<g
   id="shape104-202"
   v:mID="104"
   v:groupContext="shape"
   transform="translate(2.92056,-27.7324)">
					<title
   id="title516">Sheet.104</title>
					<path
   d="M 0,181.02 H 14.21 V 175.7 H 0 Z m 1.18,-4.14 H 13 v 2.96 H 1.18 Z"
   class="st25"
   id="path518" />
				</g>
				<g
   id="shape105-204"
   v:mID="105"
   v:groupContext="shape"
   transform="translate(13.8491,-29.7965)">
					<title
   id="title521">Sheet.105</title>
					<circle
   cx="0.59096301"
   cy="180.42799"
   class="st25"
   id="ellipse523"
   r="0.59096301" />
				</g>
				<g
   id="shape106-206"
   v:mID="106"
   v:groupContext="shape"
   transform="translate(2.92056,-21.5316)">
					<title
   id="title526">Sheet.106</title>
					<path
   d="m 0,181.02 h 14.21 v -5.31 H 0 Z m 1.18,-4.16 H 13 v 2.95 H 1.18 Z"
   class="st25"
   id="path528" />
				</g>
				<g
   id="shape107-208"
   v:mID="107"
   v:groupContext="shape"
   transform="translate(13.8491,-23.5957)">
					<title
   id="title531">Sheet.107</title>
					<circle
   cx="0.59096301"
   cy="180.42799"
   class="st25"
   id="ellipse533"
   r="0.59096301" />
				</g>
				<g
   id="shape108-210"
   v:mID="108"
   v:groupContext="shape"
   transform="translate(2.92056,-15.3308)">
					<title
   id="title536">Sheet.108</title>
					<path
   d="m 0,181.02 h 14.21 v -5.31 H 0 Z m 1.18,-4.13 H 13 v 2.95 H 1.18 Z"
   class="st25"
   id="path538" />
				</g>
				<g
   id="shape109-212"
   v:mID="109"
   v:groupContext="shape"
   transform="translate(13.8491,-17.3949)">
					<title
   id="title541">Sheet.109</title>
					<circle
   cx="0.59096301"
   cy="180.42799"
   class="st25"
   id="ellipse543"
   r="0.59096301" />
				</g>
				<g
   id="shape110-214"
   v:mID="110"
   v:groupContext="shape"
   transform="translate(2.92056,-9.12995)">
					<title
   id="title546">Sheet.110</title>
					<path
   d="m 0,181.02 h 14.21 v -5.31 H 0 Z m 1.18,-4.13 H 13 v 2.98 H 1.18 Z"
   class="st25"
   id="path548" />
				</g>
				<g
   id="shape111-216"
   v:mID="111"
   v:groupContext="shape"
   transform="translate(13.8491,-11.194)">
					<title
   id="title551">Sheet.111</title>
					<circle
   cx="0.59096301"
   cy="180.42799"
   class="st25"
   id="ellipse553"
   r="0.59096301" />
				</g>
				<g
   id="shape112-218"
   v:mID="112"
   v:groupContext="shape"
   transform="translate(2.92056,-2.92056)">
					<title
   id="title556">Sheet.112</title>
					<path
   d="M 0,181.02 H 14.21 V 175.7 H 0 Z m 1.18,-4.14 H 13 v 2.96 H 1.18 Z"
   class="st25"
   id="path558" />
				</g>
				<g
   id="shape113-220"
   v:mID="113"
   v:groupContext="shape"
   transform="translate(13.8491,-4.99321)">
					<title
   id="title561">Sheet.113</title>
					<circle
   cx="0.59096301"
   cy="180.42799"
   class="st25"
   id="ellipse563"
   r="0.59096301" />
				</g>
			</g>
		</g><g
     id="group114-222"
     transform="matrix(1.8332029,0,0,1.8332029,805.69864,-10.159601)"
     v:mID="114"
     v:groupContext="group">
			<title
   id="title568">Fast Connect</title>
			<g
   id="group115-223"
   v:mID="115"
   v:groupContext="group">
				<title
   id="title570">Sheet.115</title>
				<g
   id="group116-224"
   v:mID="116"
   v:groupContext="group">
					<title
   id="title572">Sheet.116</title>
					<g
   id="shape117-225"
   v:mID="117"
   v:groupContext="shape"
   transform="translate(0.205529,-0.20964)">
						<title
   id="title574">Sheet.117</title>
						<path
   d="m 12.16,181.02 c -0.14,0 -0.27,-0.01 -0.4,-0.02 -1.07,-0.11 -2.05,-0.65 -2.72,-1.48 -0.14,0.02 -0.29,0.03 -0.44,0.03 -0.11,0 -0.22,-0.01 -0.33,-0.02 -0.88,-0.09 -1.68,-0.5 -2.25,-1.17 H 2.63 v -1.14 h 2.74 c -0.15,-0.46 -0.21,-0.95 -0.16,-1.43 0,-0.02 0,-0.04 0.01,-0.07 H 1.36 v -1.13 h 3.15 c -0.37,-0.43 -0.64,-0.94 -0.76,-1.5 H 0 v -1.14 h 3.71 c 0.08,-0.51 0.26,-0.99 0.56,-1.4 H 1.36 v -1.14 h 4.12 c -0.06,-0.33 -0.07,-0.67 -0.04,-1.01 0.01,-0.16 0.04,-0.33 0.08,-0.49 H 2.63 v -1.13 h 3.4 c 0.2,-0.3 0.43,-0.55 0.7,-0.78 0.64,-0.52 1.42,-0.8 2.24,-0.8 0.13,0 0.25,0.01 0.37,0.02 0.23,0.03 0.46,0.07 0.67,0.14 0.92,-0.77 2.08,-1.19 3.27,-1.19 0.17,0 0.34,0 0.51,0.02 1.65,0.17 3.11,1.13 3.92,2.59 h 3.96 v 1.13 h -3.49 c 0.08,0.28 0.12,0.57 0.15,0.86 0.36,0.16 0.69,0.38 0.98,0.64 h 3.72 v 1.14 h -2.82 c 0.24,0.44 0.39,0.91 0.46,1.41 h 3.72 v 1.13 h -3.72 c -0.08,0.54 -0.25,1.05 -0.52,1.5 h 2.88 v 1.14 h -3.85 c -0.04,0.03 -0.09,0.07 -0.13,0.1 0.04,0.27 0.05,0.54 0.02,0.81 -0.02,0.2 -0.05,0.4 -0.11,0.59 h 2.64 l 0.05,0.13 c 0.01,0.04 0.05,0.14 0.01,0.81 l -0.01,0.2 h -3.29 c -0.61,0.76 -1.56,1.21 -2.54,1.21 -0.11,0 -0.22,0 -0.34,-0.02 -0.07,0 -0.15,-0.01 -0.23,-0.03 -0.76,0.95 -1.88,1.49 -3.09,1.49 z"
   class="st26"
   id="path576" />
					</g>
					<g
   id="shape118-227"
   v:mID="118"
   v:groupContext="shape">
						<title
   id="title579">Sheet.118</title>
						<path
   d="m 13.48,164.16 c 0.17,0 0.33,0.01 0.5,0.03 1.67,0.16 3.07,1.18 3.81,2.58 h 3.87 v 0.73 H 18.1 c 0.13,0.38 0.21,0.78 0.24,1.19 0.41,0.18 0.78,0.42 1.09,0.72 h 3.59 v 0.72 h -2.97 c 0.35,0.54 0.58,1.16 0.64,1.82 h 3.69 v 0.73 h -3.69 c 0,0.01 0,0.02 0,0.02 -0.07,0.7 -0.32,1.34 -0.71,1.89 h 3.05 v 0.72 h -3.72 c -0.09,0.08 -0.18,0.15 -0.28,0.22 0.06,0.29 0.07,0.59 0.04,0.88 -0.03,0.28 -0.1,0.56 -0.19,0.82 h 2.78 c 0.04,0.09 0,0.72 0,0.72 h -3.19 c -0.57,0.75 -1.46,1.23 -2.45,1.23 -0.1,0 -0.21,-0.01 -0.31,-0.02 -0.11,-0.01 -0.23,-0.03 -0.34,-0.05 -0.71,0.94 -1.82,1.49 -3.01,1.49 -0.12,0 -0.25,0 -0.38,-0.02 -1.06,-0.1 -2.01,-0.65 -2.64,-1.49 -0.18,0.03 -0.35,0.04 -0.53,0.04 -0.11,0 -0.21,0 -0.32,-0.01 -0.85,-0.09 -1.62,-0.51 -2.16,-1.17 -0.01,0 -0.01,-0.01 -0.01,-0.01 H 3.05 v -0.72 h 2.83 c -0.22,-0.5 -0.32,-1.06 -0.26,-1.62 0.01,-0.1 0.02,-0.2 0.04,-0.29 H 1.77 v -0.73 h 3.46 c -0.59,-0.47 -0.98,-1.15 -1.1,-1.91 H 0.41 v -0.72 H 4.1 c 0,-0.02 0,-0.04 0,-0.05 0.07,-0.68 0.36,-1.29 0.8,-1.77 H 1.77 v -0.73 h 4.15 c 0.01,0 0.01,-0.01 0.02,-0.01 -0.1,-0.39 -0.13,-0.78 -0.09,-1.18 0.02,-0.24 0.08,-0.48 0.16,-0.71 H 3.05 v -0.73 h 3.3 c 0.19,-0.3 0.43,-0.58 0.72,-0.82 0.6,-0.49 1.34,-0.75 2.11,-0.75 0.12,0 0.23,0 0.35,0.01 0.25,0.03 0.5,0.08 0.74,0.16 0.89,-0.78 2.03,-1.21 3.21,-1.21 z m 0,-0.41 c 0,0 0,0 0,0 -1.2,0 -2.37,0.41 -3.31,1.17 -0.19,-0.06 -0.4,-0.09 -0.6,-0.11 -0.13,-0.02 -0.26,-0.02 -0.39,-0.02 -0.88,0 -1.7,0.29 -2.38,0.85 -0.25,0.21 -0.48,0.45 -0.68,0.72 H 3.04 2.63 v 0.41 0.73 0.41 h 0.41 2.44 c -0.02,0.09 -0.03,0.18 -0.04,0.27 -0.03,0.27 -0.03,0.54 0.01,0.82 H 1.77 1.36 v 0.41 0.72 0.42 H 1.77 4.1 c -0.17,0.3 -0.29,0.64 -0.36,0.99 H 0.41 0 v 0.41 0.73 0.41 H 0.41 3.8 c 0.1,0.39 0.27,0.76 0.5,1.09 H 1.77 1.36 v 0.41 0.72 0.41 H 1.77 5.2 c -0.02,0.37 0.01,0.74 0.1,1.09 H 3.05 2.63 v 0.41 0.73 0.41 h 0.42 3.08 c 0.6,0.67 1.42,1.08 2.32,1.17 0.12,0.01 0.24,0.02 0.36,0.02 0.11,0 0.23,-0.01 0.35,-0.02 0.7,0.83 1.7,1.36 2.78,1.47 0.14,0.01 0.28,0.02 0.43,0.02 1.24,0 2.38,-0.54 3.18,-1.47 0.04,0 0.09,0.01 0.13,0.01 0.11,0.02 0.23,0.02 0.35,0.02 1.01,0 1.99,-0.45 2.64,-1.22 h 3 0.39 l 0.02,-0.39 c 0.04,-0.72 0,-0.83 -0.03,-0.89 l -0.1,-0.27 h -0.28 -2.24 c 0.03,-0.12 0.05,-0.24 0.06,-0.36 0.02,-0.24 0.02,-0.48 -0.01,-0.73 h 3.55 0.41 v -0.41 -0.72 -0.41 h -0.41 -2.32 c 0.16,-0.35 0.28,-0.72 0.34,-1.09 h 3.34 0.41 v -0.41 -0.73 -0.41 h -0.41 -3.34 c -0.06,-0.34 -0.16,-0.68 -0.3,-0.99 h 2.28 0.41 V 170.13 169.41 169 H 23.03 19.6 c -0.27,-0.23 -0.56,-0.42 -0.86,-0.58 -0.02,-0.17 -0.05,-0.34 -0.09,-0.51 h 3.02 0.41 v -0.41 -0.73 -0.41 h -0.41 -3.63 c -0.85,-1.45 -2.34,-2.41 -4.02,-2.58 -0.18,-0.02 -0.36,-0.03 -0.54,-0.03 z"
   class="st26"
   id="path581" />
					</g>
				</g>
				<g
   id="group119-229"
   transform="translate(0.411059,-0.415169)"
   v:mID="119"
   v:groupContext="group">
					<title
   id="title585">Sheet.119</title>
					<g
   id="shape120-230"
   v:mID="120"
   v:groupContext="shape"
   transform="translate(2.63489,-13.1046)">
						<title
   id="title587">Sheet.120</title>
						<path
   d="m 0,180.29 v 0.73 h 2.39 c 0.07,-0.25 0.16,-0.49 0.28,-0.73 z"
   class="st21"
   id="path589" />
					</g>
					<g
   id="shape121-232"
   v:mID="121"
   v:groupContext="shape"
   transform="translate(17.992,-13.1046)">
						<title
   id="title592">Sheet.121</title>
						<path
   d="m 3.26,181.02 v -0.73 H 0 c 0.11,0.24 0.2,0.48 0.27,0.73 z"
   class="st21"
   id="path594" />
					</g>
					<g
   id="shape122-234"
   v:mID="122"
   v:groupContext="shape"
   transform="translate(1.3606,-10.4697)">
						<title
   id="title597">Sheet.122</title>
						<path
   d="M 3.11,180.29 H 0 v 0.73 h 2.43 c 0.19,-0.28 0.42,-0.52 0.68,-0.73 z"
   class="st21"
   id="path599" />
					</g>
					<g
   id="shape123-236"
   v:mID="123"
   v:groupContext="shape"
   transform="translate(19.7843,-10.4738)">
						<title
   id="title602">Sheet.123</title>
						<path
   d="m 2.83,181.02 v -0.73 H 0 c 0.19,0.23 0.36,0.47 0.5,0.73 z"
   class="st21"
   id="path604" />
					</g>
					<g
   id="shape124-238"
   v:mID="124"
   v:groupContext="shape"
   transform="translate(20.8284,-7.92933)">
						<title
   id="title607">Sheet.124</title>
						<path
   d="m 0,181.02 h 3.15 v -0.73 H 0 c 0.02,0.24 0.02,0.49 0,0.73 z"
   class="st21"
   id="path609" />
					</g>
					<g
   id="shape125-240"
   v:mID="125"
   v:groupContext="shape"
   transform="translate(0,-7.92933)">
						<title
   id="title612">Sheet.125</title>
						<path
   d="M 3.14,180.29 H 0 v 0.73 h 3.17 c -0.03,-0.24 -0.04,-0.48 -0.03,-0.73 z"
   class="st21"
   id="path614" />
					</g>
					<g
   id="shape126-242"
   v:mID="126"
   v:groupContext="shape"
   transform="translate(1.3606,-5.29444)">
						<title
   id="title617">Sheet.126</title>
						<path
   d="M 2.67,180.29 H 0 v 0.73 h 3.33 c 0.01,-0.04 0.02,-0.08 0.02,-0.12 -0.25,-0.17 -0.48,-0.38 -0.68,-0.61 z"
   class="st21"
   id="path619" />
					</g>
					<g
   id="shape127-244"
   v:mID="127"
   v:groupContext="shape"
   transform="translate(19.6897,-5.29444)">
						<title
   id="title622">Sheet.127</title>
						<path
   d="m 2.93,181.02 v -0.73 h -2.4 c -0.15,0.26 -0.33,0.5 -0.53,0.73 z"
   class="st21"
   id="path624" />
					</g>
					<g
   id="shape128-246"
   v:mID="128"
   v:groupContext="shape"
   transform="translate(18.7155,-2.65955)">
						<title
   id="title627">Sheet.128</title>
						<path
   d="m 2.54,181.02 v -0.73 H 0.33 c -0.08,0.26 -0.19,0.5 -0.33,0.73 z"
   class="st21"
   id="path629" />
					</g>
					<g
   id="shape129-248"
   v:mID="129"
   v:groupContext="shape"
   transform="translate(2.63489,-2.65955)">
						<title
   id="title632">Sheet.129</title>
						<path
   d="m 0,180.29 v 0.73 h 2.6 c -0.15,-0.23 -0.27,-0.47 -0.36,-0.73 z"
   class="st21"
   id="path634" />
					</g>
					<g
   id="shape130-250"
   v:mID="130"
   v:groupContext="shape"
   transform="translate(3.56388)">
						<title
   id="title637">Sheet.130</title>
						<path
   d="m 16.72,173.11 c 0.17,-1.71 -0.79,-3.33 -2.35,-4 -0.16,-2.35 -2,-4.27 -4.37,-4.51 -1.35,-0.13 -2.69,0.3 -3.71,1.19 -0.24,-0.08 -0.49,-0.14 -0.74,-0.16 -0.89,-0.09 -1.77,0.17 -2.46,0.74 -0.7,0.57 -1.13,1.37 -1.22,2.26 -0.04,0.4 -0.01,0.8 0.09,1.18 -1.01,0.44 -1.72,1.39 -1.83,2.51 -0.13,1.26 0.54,2.46 1.65,3.03 -0.07,0.21 -0.12,0.44 -0.14,0.66 -0.09,0.86 0.16,1.69 0.71,2.36 0.54,0.66 1.31,1.07 2.16,1.16 0.28,0.03 0.57,0.02 0.85,-0.03 0.63,0.85 1.58,1.39 2.64,1.5 0.13,0.01 0.25,0.02 0.38,0.02 1.19,0 2.3,-0.56 3.01,-1.51 0.12,0.03 0.23,0.05 0.34,0.06 0.1,0.01 0.21,0.01 0.31,0.01 1.56,0 2.9,-1.18 3.06,-2.76 0.03,-0.29 0.01,-0.58 -0.04,-0.88 0.94,-0.66 1.54,-1.67 1.66,-2.83 z m -2.42,2.77 c 0.08,0.29 0.11,0.58 0.08,0.87 -0.06,0.62 -0.37,1.18 -0.85,1.58 -0.49,0.4 -1.1,0.58 -1.72,0.52 -0.15,-0.02 -0.3,-0.05 -0.46,-0.1 l -0.26,-0.08 -0.15,0.23 c -0.62,0.97 -1.72,1.49 -2.86,1.38 -0.92,-0.1 -1.75,-0.6 -2.25,-1.37 l -0.14,-0.22 -0.25,0.06 c -0.29,0.07 -0.57,0.09 -0.84,0.06 -0.67,-0.06 -1.26,-0.38 -1.68,-0.9 -0.42,-0.51 -0.62,-1.16 -0.55,-1.82 0.03,-0.27 0.1,-0.53 0.22,-0.78 l 0.16,-0.35 -0.37,-0.14 C 1.6,174.53 1.06,173.87 0.9,173.09 h 5.09 l -0.99,1 0.51,0.52 1.86,-1.88 -1.86,-1.87 -0.51,0.51 0.99,1 H 0.86 c 0.1,-0.94 0.75,-1.71 1.66,-1.98 l 0.37,-0.12 -0.14,-0.36 c -0.14,-0.39 -0.2,-0.79 -0.16,-1.2 0.07,-0.7 0.41,-1.33 0.96,-1.77 0.54,-0.45 1.23,-0.66 1.93,-0.59 0.26,0.03 0.51,0.09 0.76,0.2 l 0.22,0.09 0.17,-0.17 c 0.88,-0.85 2.08,-1.27 3.3,-1.15 2.09,0.21 3.68,1.95 3.73,4.05 v 0.25 l 0.23,0.08 c 1.17,0.43 1.97,1.47 2.1,2.67 h -5.07 l 0.9,-0.91 -0.52,-0.52 -1.77,1.79 1.86,1.87 0.52,-0.51 -0.99,-1 h 5.07 c -0.12,0.99 -0.67,1.85 -1.53,2.38 l -0.24,0.14 z"
   class="st21"
   id="path639" />
					</g>
				</g>
			</g>
		</g><path
     d="m 532.15612,215.24345 c 0,-0.46444 0.0751,-0.86833 0.16903,-0.86833 h 44.61704 c 0.0877,0 0.16278,0.40389 0.16278,0.86833 v 46.74823 c 0,0.46445 -0.0751,0.84812 -0.16278,0.84812 h -44.61704 c -0.0939,0 -0.16903,-0.38367 -0.16903,-0.84812 z"
     class="st3"
     id="path58-3"
     style="fill:#f5f4f2;stroke:none;stroke-width:0.459019;stroke-linecap:round;stroke-linejoin:round" /><path
     d="m 422.61406,217.91996 c 0,-0.46445 0.0751,-0.86834 0.16903,-0.86834 h 44.61705 c 0.0877,0 0.16277,0.40389 0.16277,0.86834 v 46.74822 c 0,0.46446 -0.0751,0.84813 -0.16277,0.84813 h -44.61705 c -0.0939,0 -0.16903,-0.38367 -0.16903,-0.84813 z"
     class="st3"
     id="path58-3-3"
     style="fill:#f5f4f2;stroke:none;stroke-width:0.459019;stroke-linecap:round;stroke-linejoin:round" /><path
     d="m 108.70955,217.13909 c 0,-0.46444 0.0751,-0.86833 0.16903,-0.86833 h 44.61704 c 0.0877,0 0.16278,0.40389 0.16278,0.86833 v 46.74823 c 0,0.46445 -0.0751,0.84812 -0.16278,0.84812 h -44.61704 c -0.0939,0 -0.16903,-0.38367 -0.16903,-0.84812 z"
     class="st3"
     id="path58-3-3-3"
     style="fill:#f5f4f2;stroke:none;stroke-width:0.459019;stroke-linecap:round;stroke-linejoin:round" /><g
     id="group52-91"
     transform="matrix(1.8332029,0,0,1.8332029,503.49882,-61.914768)"
     v:mID="52"
     v:groupContext="group">
			<title
   id="title255">Dynamic Routing Gateway (DRG).130</title>
			<g
   id="group53-92"
   transform="translate(8.40315,-28.6031)"
   v:mID="53"
   v:groupContext="group">
				<title
   id="title257">Direct Routing Gateway DRG</title>
				<g
   id="shape54-93"
   v:mID="54"
   v:groupContext="shape">
					<title
   id="title259">Sheet.54</title>
					<circle
   cx="18.1752"
   cy="162.84399"
   class="st11"
   id="ellipse261"
   r="18.1752" />
				</g>
				<g
   id="shape55-95"
   v:mID="55"
   v:groupContext="shape"
   transform="translate(0.443298,-5.00993)">
					<title
   id="title264">Sheet.55</title>
					<path
   d="M 17.73,150.12 A 17.7319,17.7319 0 1 1 0,167.85 17.7319,17.7319 0 0 1 17.73,150.12 Z m 0,-0.88 a 18.6185,18.6185 -180 1 0 18.62,18.61 18.6185,18.6185 -180 0 0 -18.62,-18.61 z"
   class="st11"
   id="path266" />
				</g>
				<g
   id="shape56-97"
   v:mID="56"
   v:groupContext="shape"
   transform="translate(5.63685,-1.92391)">
					<title
   id="title269">Sheet.56</title>
					<path
   d="m 12.54,147.04 a 17.7319,17.7319 -180 1 0 17.73,17.73 17.7319,17.7319 -180 0 0 -17.73,-17.73 z m 0,33.98 a 16.2513,16.2513 0 1 1 16.25,-16.25 16.269,16.269 0 0 1 -16.25,16.25 z"
   class="st12"
   id="path271" />
				</g>
				<g
   id="shape57-99"
   v:mID="57"
   v:groupContext="shape"
   transform="translate(14.1412,-4.93834)">
					<title
   id="title274">Sheet.57</title>
					<path
   d="m 4.77,178.19 v -20.63 l 2.25,2.25 1.05,-1.04 -4.04,-4.04 -4.03,4.04 1.05,1.04 2.25,-2.25 v 20.63 l -2.25,-2.25 -1.05,1.05 4.03,4.03 4.04,-4.03 -1.05,-1.05 z"
   class="st12"
   id="path276" />
				</g>
				<g
   id="shape58-101"
   v:mID="58"
   v:groupContext="shape"
   transform="translate(5.06246,-14.1412)">
					<title
   id="title279">Sheet.58</title>
					<path
   d="M 8.28,172.95 7.23,174 9.49,176.25 H 0 v 1.47 h 9.49 l -2.26,2.25 1.05,1.05 4.03,-4.03 z"
   class="st12"
   id="path281" />
				</g>
				<g
   id="shape59-103"
   v:mID="59"
   v:groupContext="shape"
   transform="translate(18.982,-14.1412)">
					<title
   id="title284">Sheet.59</title>
					<path
   d="M 2.82,176.25 5.07,174 4.03,172.95 0,176.99 l 4.03,4.03 1.04,-1.05 -2.25,-2.25 h 9.49 v -1.47 z"
   class="st12"
   id="path286" />
				</g>
			</g>
			<g
   id="shape60-105"
   v:mID="60"
   v:groupContext="shape">
				<title
   id="title290">Sheet.60</title>
				<desc
   id="desc292">Provider Edge</desc>
				<v:textBlock
   v:margins="rect(4,4,4,4)" />
				<v:textRect
   cx="26.8"
   cy="166.519"
   width="53.6"
   height="29" />
				<rect
   x="0"
   y="152.019"
   width="53.599998"
   height="29"
   class="st13"
   id="rect294" />
				<text
   x="11.56"
   y="164.12"
   class="st14"
   v:langID="1033"
   id="text298"><v:paragraph
   v:horizAlign="1"
   v:bulletSize="0.166667" /><v:tabList />Provider <tspan
   x="17.65"
   dy="1.2em"
   class="st5"
   id="tspan296">Edge</tspan></text>			</g>
		</g><g
     id="group43-73"
     transform="matrix(1.8332029,0,0,1.8332029,373.79971,-61.914768)"
     v:mID="43"
     v:groupContext="group">
			<title
   id="title208">Dynamic Routing Gateway (DRG).112</title>
			<g
   id="group44-74"
   transform="translate(8.40315,-28.6031)"
   v:mID="44"
   v:groupContext="group">
				<title
   id="title210">Direct Routing Gateway DRG</title>
				<g
   id="shape45-75"
   v:mID="45"
   v:groupContext="shape">
					<title
   id="title212">Sheet.45</title>
					<circle
   cx="18.1752"
   cy="162.84399"
   class="st11"
   id="ellipse214"
   r="18.1752" />
				</g>
				<g
   id="shape46-77"
   v:mID="46"
   v:groupContext="shape"
   transform="translate(0.443298,-5.00993)">
					<title
   id="title217">Sheet.46</title>
					<path
   d="M 17.73,150.12 A 17.7319,17.7319 0 1 1 0,167.85 17.7319,17.7319 0 0 1 17.73,150.12 Z m 0,-0.88 a 18.6185,18.6185 -180 1 0 18.62,18.61 18.6185,18.6185 -180 0 0 -18.62,-18.61 z"
   class="st11"
   id="path219" />
				</g>
				<g
   id="shape47-79"
   v:mID="47"
   v:groupContext="shape"
   transform="translate(5.63685,-1.92391)">
					<title
   id="title222">Sheet.47</title>
					<path
   d="m 12.54,147.04 a 17.7319,17.7319 -180 1 0 17.73,17.73 17.7319,17.7319 -180 0 0 -17.73,-17.73 z m 0,33.98 a 16.2513,16.2513 0 1 1 16.25,-16.25 16.269,16.269 0 0 1 -16.25,16.25 z"
   class="st12"
   id="path224" />
				</g>
				<g
   id="shape48-81"
   v:mID="48"
   v:groupContext="shape"
   transform="translate(14.1412,-4.93834)">
					<title
   id="title227">Sheet.48</title>
					<path
   d="m 4.77,178.19 v -20.63 l 2.25,2.25 1.05,-1.04 -4.04,-4.04 -4.03,4.04 1.05,1.04 2.25,-2.25 v 20.63 l -2.25,-2.25 -1.05,1.05 4.03,4.03 4.04,-4.03 -1.05,-1.05 z"
   class="st12"
   id="path229" />
				</g>
				<g
   id="shape49-83"
   v:mID="49"
   v:groupContext="shape"
   transform="translate(5.06246,-14.1412)">
					<title
   id="title232">Sheet.49</title>
					<path
   d="M 8.28,172.95 7.23,174 9.49,176.25 H 0 v 1.47 h 9.49 l -2.26,2.25 1.05,1.05 4.03,-4.03 z"
   class="st12"
   id="path234" />
				</g>
				<g
   id="shape50-85"
   v:mID="50"
   v:groupContext="shape"
   transform="translate(18.982,-14.1412)">
					<title
   id="title237">Sheet.50</title>
					<path
   d="M 2.82,176.25 5.07,174 4.03,172.95 0,176.99 l 4.03,4.03 1.04,-1.05 -2.25,-2.25 h 9.49 v -1.47 z"
   class="st12"
   id="path239" />
				</g>
			</g>
			<g
   id="shape51-87"
   v:mID="51"
   v:groupContext="shape">
				<title
   id="title243">Sheet.51</title>
				<desc
   id="desc245">Provider Edge</desc>
				<v:textBlock
   v:margins="rect(4,4,4,4)" />
				<v:textRect
   cx="26.8"
   cy="166.519"
   width="53.6"
   height="29" />
				<rect
   x="0"
   y="152.019"
   width="53.599998"
   height="29"
   class="st13"
   id="rect247" />
				<text
   x="11.56"
   y="164.12"
   class="st14"
   v:langID="1033"
   id="text251"><v:paragraph
   v:horizAlign="1"
   v:bulletSize="0.166667" /><v:tabList />Provider <tspan
   x="17.65"
   dy="1.2em"
   class="st5"
   id="tspan249">Edge</tspan></text>			</g>
		</g><g
     id="group13-31"
     transform="matrix(1.8332029,0,0,1.8332029,107.34624,-62.95401)"
     v:mID="13"
     v:groupContext="group">
			<title
   id="title99">Customer Premises Equipment   (CPE)</title>
			<g
   id="group14-32"
   transform="translate(8.79999,-28.8299)"
   v:mID="14"
   v:groupContext="group">
				<title
   id="title101">Customer Premises Equipment</title>
				<g
   id="shape15-33"
   v:mID="15"
   v:groupContext="shape"
   transform="translate(0.428572,-0.428572)">
					<title
   id="title103">Sheet.15</title>
					<path
   d="m 0,179.16 a 1.86004,1.86004 -180 0 0 1.86,1.86 h 31.42 a 1.86004,1.86004 -180 0 0 1.86,-1.86 v -31.42 a 1.86004,1.86004 -180 0 0 -1.86,-1.86 H 1.86 A 1.86004,1.86004 -180 0 0 0,147.74 Z"
   class="st11"
   id="path105" />
				</g>
				<g
   id="shape16-35"
   v:mID="16"
   v:groupContext="shape">
					<title
   id="title108">Sheet.16</title>
					<path
   d="m 33.71,145.88 a 1.43143,1.43143 0 0 1 1.43,1.43 v 31.42 a 1.43143,1.43143 0 0 1 -1.43,1.43 H 2.29 a 1.43143,1.43143 0 0 1 -1.43,-1.43 v -31.42 a 1.43143,1.43143 0 0 1 1.43,-1.43 z m 0,-0.86 H 2.29 A 2.29714,2.29714 -180 0 0 0,147.31 v 31.42 a 2.29714,2.29714 -180 0 0 2.29,2.29 H 33.71 A 2.29714,2.29714 -180 0 0 36,178.73 v -31.42 a 2.29714,2.29714 -180 0 0 -2.29,-2.29 z"
   class="st11"
   id="path110" />
				</g>
				<g
   id="shape17-37"
   v:mID="17"
   v:groupContext="shape"
   transform="translate(0.857143,-0.857143)">
					<title
   id="title113">Sheet.17</title>
					<path
   d="M 32.85,146.73 H 1.43 A 1.43143,1.43143 -180 0 0 0,148.16 v 31.43 a 1.43143,1.43143 -180 0 0 1.43,1.43 h 31.42 a 1.43143,1.43143 -180 0 0 1.44,-1.43 v -31.43 a 1.43143,1.43143 -180 0 0 -1.44,-1.43 z m 0.17,32.86 a 0.171429,0.171429 0 0 1 -0.162857,0.16286 L 1.43,179.75 A 0.171429,0.171429 0 0 1 1.267143,179.58714 L 1.27,148.16 a 0.171429,0.171429 0 0 1 0.162857,-0.16286 L 32.85,148 a 0.171429,0.171429 0 0 1 0.162857,0.16286 z"
   class="st12"
   id="path115" />
				</g>
				<g
   id="shape18-39"
   v:mID="18"
   v:groupContext="shape"
   transform="translate(7.44795,-4.34572)">
					<title
   id="title118">Sheet.18</title>
					<path
   d="m 10.55,152.44 a 14.9229,14.9229 -180 1 0 14.92,14.92 14.94,14.94 -180 0 0 -14.92,-14.92 z m 0,28.58 a 13.6543,13.6543 0 1 1 13.66,-13.66 13.7143,13.7143 0 0 1 -13.66,13.66 z"
   class="st12"
   id="path120" />
				</g>
				<g
   id="shape19-41"
   v:mID="19"
   v:groupContext="shape"
   transform="translate(14.5371,-6.94286)">
					<title
   id="title123">Sheet.19</title>
					<path
   d="m 4.1,178.58 v -17.09 l 1.93,1.94 0.9,-0.9 -3.47,-3.46 -3.46,3.46 0.89,0.9 1.94,-1.94 v 17.09 l -1.94,-1.92 -0.89,0.9 3.46,3.46 3.47,-3.46 -0.9,-0.9 z"
   class="st12"
   id="path125" />
				</g>
				<g
   id="shape20-43"
   v:mID="20"
   v:groupContext="shape"
   transform="translate(18.6857,-14.5371)">
					<title
   id="title128">Sheet.20</title>
					<path
   d="m 4.36,174.98 -0.89,-0.89 -3.47,3.47 3.47,3.46 0.89,-0.89 -1.93,-1.94 h 7.83 v -1.27 H 2.43 Z"
   class="st12"
   id="path130" />
				</g>
				<g
   id="shape21-45"
   v:mID="21"
   v:groupContext="shape"
   transform="translate(7.04572,-14.5371)">
					<title
   id="title133">Sheet.21</title>
					<path
   d="m 6.8,174.09 -0.89,0.89 1.92,1.94 H 0 v 1.27 h 7.83 l -1.92,1.94 0.89,0.89 3.47,-3.46 z"
   class="st12"
   id="path135" />
				</g>
			</g>
			<g
   id="shape22-47"
   v:mID="22"
   v:groupContext="shape">
				<title
   id="title139">Sheet.22</title>
				<desc
   id="desc141">Your Edge Device</desc>
				<v:textBlock
   v:margins="rect(4,4,4,4)" />
				<v:textRect
   cx="26.8"
   cy="166.519"
   width="53.6"
   height="29" />
				<rect
   x="0"
   y="152.019"
   width="53.599998"
   height="29"
   class="st13"
   id="rect143" />
				<text
   x="7.9899998"
   y="164.12"
   class="st14"
   v:langID="1033"
   id="text147"><v:paragraph
   v:horizAlign="1"
   v:bulletSize="0.166667" /><v:tabList />Your Edge <tspan
   x="14.77"
   dy="1.2em"
   class="st5"
   id="tspan145">Device</tspan></text>			</g>
		</g></g></svg>
